<?xml version="1.0" standalone="no"?>
<!DOCTYPE svg PUBLIC "-//W3C//DTD SVG 20010904//EN"
 "http://www.w3.org/TR/2001/REC-SVG-20010904/DTD/svg10.dtd">
<svg version="1.0" xmlns="http://www.w3.org/2000/svg"
 width="225.000000pt" height="225.000000pt" viewBox="0 0 225.000000 225.000000"
 preserveAspectRatio="xMidYMid meet">

<g transform="translate(0.000000,225.000000) scale(0.100000,-0.100000)"
fill="#000000" stroke="none">
<path d="M1850 2174 c-23 -14 -218 -297 -825 -1196 l-180 -267 -225 223 c-124
123 -236 231 -250 240 -28 19 -72 21 -103 5 -12 -6 -68 -57 -124 -112 -112
-111 -132 -145 -114 -200 8 -23 125 -146 384 -404 354 -353 375 -372 426 -387
64 -19 113 -10 159 29 15 13 70 86 122 162 51 76 141 208 198 293 58 85 142
209 187 275 623 918 717 1059 721 1088 9 59 -21 93 -155 184 -133 89 -168 100
-221 67z"/>
</g>
</svg>
