<svg version="1.1" id="Layer_1" xmlns="http://www.w3.org/2000/svg" xmlns:xlink="http://www.w3.org/1999/xlink" x="0px" y="0px"
	 width="100%" viewBox="0 0 400 400" enable-background="new 0 0 400 400" xml:space="preserve">
<path fill="#C6E7EB" opacity="1.000000" stroke="none" 
	d="
M230.000000,401.000000 
	C210.979111,401.000000 191.958206,401.000000 172.792938,400.658295 
	C168.734726,399.532379 164.787552,398.884918 160.912720,397.940613 
	C142.885345,393.547394 125.297226,387.857086 108.777168,379.287720 
	C94.914040,372.096527 82.126053,363.349487 70.353195,352.997467 
	C58.207108,342.317291 46.557121,331.193298 37.955692,317.438049 
	C30.535521,305.571899 23.215168,293.534607 17.189747,280.932739 
	C9.731787,265.334747 5.088450,248.675491 2.926415,231.413925 
	C2.817272,230.542526 1.666038,229.801651 1.000005,229.000000 
	C1.000000,210.645767 1.000000,192.291550 1.346146,173.793915 
	C2.126527,172.815170 2.808503,172.020599 2.953767,171.137711 
	C3.745069,166.328293 4.003798,161.397583 5.174172,156.689697 
	C12.416743,127.556091 24.286276,100.675461 43.288376,77.069725 
	C56.473194,60.690613 71.499634,46.477039 88.821434,34.623375 
	C100.579689,26.576954 113.144173,20.130529 126.391037,14.872271 
	C140.378159,9.320167 154.630341,4.925542 169.584549,2.926827 
	C170.459915,2.809830 171.198013,1.665986 172.000000,0.999999 
	C191.020889,1.000000 210.041794,1.000000 229.205475,1.349599 
	C231.852325,2.141862 234.385864,2.460327 236.855713,3.046970 
	C255.517471,7.479540 273.880219,12.858772 291.055847,21.580629 
	C305.403534,28.866440 318.716095,37.691757 330.923126,48.288784 
	C343.282684,59.018227 354.984406,70.381485 363.862122,84.113380 
	C371.540131,95.989563 378.677216,108.326317 384.823975,121.053261 
	C392.352875,136.641785 396.836914,153.342880 399.073059,170.585526 
	C399.186340,171.458954 400.333984,172.198242 401.000000,173.000000 
	C401.000000,191.354233 401.000000,209.708450 400.653809,228.206085 
	C399.872498,229.351349 399.237396,230.314804 399.036255,231.361649 
	C398.089081,236.291183 397.514801,241.304565 396.344971,246.177002 
	C391.931305,264.560211 385.507324,282.114624 376.184998,298.709961 
	C368.987030,311.523468 360.836121,323.592651 350.975067,334.339081 
	C332.400726,354.581146 311.122711,371.300629 285.840027,382.733887 
	C268.527679,390.562744 250.738922,396.404785 231.914963,399.076416 
	C231.200043,399.177917 230.634918,400.334869 230.000000,401.000000 
M307.147827,147.667740 
	C313.528229,140.518188 319.908630,133.368637 326.490570,125.993225 
	C310.225037,111.523453 294.379486,97.427292 278.149170,82.988838 
	C235.606812,130.894272 193.382217,178.441879 150.938049,226.236755 
	C139.992691,216.569946 129.469452,207.275940 118.808449,197.860275 
	C104.268669,214.135956 90.117508,229.976624 75.739677,246.071014 
	C102.694344,270.127350 129.303040,293.874908 156.280716,317.951813 
	C206.674133,261.108429 256.703369,204.675842 307.147827,147.667740 
z"/>
<path fill="#000000" opacity="1.000000" stroke="none" 
	d="
M230.468658,401.000000 
	C230.634918,400.334869 231.200043,399.177917 231.914963,399.076416 
	C250.738922,396.404785 268.527679,390.562744 285.840027,382.733887 
	C311.122711,371.300629 332.400726,354.581146 350.975067,334.339081 
	C360.836121,323.592651 368.987030,311.523468 376.184998,298.709961 
	C385.507324,282.114624 391.931305,264.560211 396.344971,246.177002 
	C397.514801,241.304565 398.089081,236.291183 399.036255,231.361649 
	C399.237396,230.314804 399.872498,229.351349 400.653809,228.674744 
	C401.000000,286.260132 401.000000,343.520294 401.000000,401.000000 
	C344.312622,401.000000 287.624969,401.000000 230.468658,401.000000 
z"/>
<path fill="#000000" opacity="1.000000" stroke="none" 
	d="
M1.000005,229.468658 
	C1.666038,229.801651 2.817272,230.542526 2.926415,231.413925 
	C5.088450,248.675491 9.731787,265.334747 17.189747,280.932739 
	C23.215168,293.534607 30.535521,305.571899 37.955692,317.438049 
	C46.557121,331.193298 58.207108,342.317291 70.353195,352.997467 
	C82.126053,363.349487 94.914040,372.096527 108.777168,379.287720 
	C125.297226,387.857086 142.885345,393.547394 160.912720,397.940613 
	C164.787552,398.884918 168.734726,399.532379 172.324280,400.658295 
	C115.072769,401.000000 58.145542,401.000000 1.000000,401.000000 
	C1.000000,343.979279 1.000000,286.958313 1.000005,229.468658 
z"/>
<path fill="#000000" opacity="1.000000" stroke="none" 
	d="
M171.531342,0.999999 
	C171.198013,1.665986 170.459915,2.809830 169.584549,2.926827 
	C154.630341,4.925542 140.378159,9.320167 126.391037,14.872271 
	C113.144173,20.130529 100.579689,26.576954 88.821434,34.623375 
	C71.499634,46.477039 56.473194,60.690613 43.288376,77.069725 
	C24.286276,100.675461 12.416743,127.556091 5.174172,156.689697 
	C4.003798,161.397583 3.745069,166.328293 2.953767,171.137711 
	C2.808503,172.020599 2.126527,172.815170 1.346146,173.325256 
	C1.000000,115.739861 1.000000,58.479725 1.000000,1.000000 
	C57.687370,1.000000 114.375031,1.000000 171.531342,0.999999 
z"/>
<path fill="#000000" opacity="1.000000" stroke="none" 
	d="
M401.000000,172.531342 
	C400.333984,172.198242 399.186340,171.458954 399.073059,170.585526 
	C396.836914,153.342880 392.352875,136.641785 384.823975,121.053261 
	C378.677216,108.326317 371.540131,95.989563 363.862122,84.113380 
	C354.984406,70.381485 343.282684,59.018227 330.923126,48.288784 
	C318.716095,37.691757 305.403534,28.866440 291.055847,21.580629 
	C273.880219,12.858772 255.517471,7.479540 236.855713,3.046970 
	C234.385864,2.460327 231.852325,2.141862 229.674133,1.349599 
	C286.927216,1.000000 343.854431,1.000000 401.000000,1.000000 
	C401.000000,58.020710 401.000000,115.041695 401.000000,172.531342 
z"/>
<path fill="#3E3E69" opacity="1.000000" stroke="none" 
	d="
M306.940216,147.955505 
	C256.703369,204.675842 206.674133,261.108429 156.280716,317.951813 
	C129.303040,293.874908 102.694344,270.127350 75.739677,246.071014 
	C90.117508,229.976624 104.268669,214.135956 118.808449,197.860275 
	C129.469452,207.275940 139.992691,216.569946 150.938049,226.236755 
	C193.382217,178.441879 235.606812,130.894272 278.149170,82.988838 
	C294.379486,97.427292 310.225037,111.523453 326.490570,125.993225 
	C319.908630,133.368637 313.528229,140.518188 306.940216,147.955505 
z"/>
</svg>